<svg xmlns="http://www.w3.org/2000/svg" xmlns:xlink="http://www.w3.org/1999/xlink"
  width="900" height="480" viewBox="0 0 900 480">
  <defs>
    <style>
      @import url('https://fonts.googleapis.com/css2?family=Bricolage+Grotesque:wght@400;700;800&amp;family=DM+Mono:wght@400;500&amp;display=swap');
    </style>
    <linearGradient id="limeCyan" x1="0%" y1="0%" x2="100%" y2="0%">
      <stop offset="0%"   stop-color="#c8f542"/>
      <stop offset="100%" stop-color="#3de8c8"/>
    </linearGradient>
    <linearGradient id="orangeRose" x1="0%" y1="0%" x2="100%" y2="0%">
      <stop offset="0%"   stop-color="#ff8c42"/>
      <stop offset="100%" stop-color="#ff5e87"/>
    </linearGradient>
    <linearGradient id="blueGreen" x1="0%" y1="0%" x2="100%" y2="0%">
      <stop offset="0%"   stop-color="#4d9eff"/>
      <stop offset="100%" stop-color="#3de8c8"/>
    </linearGradient>
    <linearGradient id="bgGrad" x1="0%" y1="0%" x2="100%" y2="100%">
      <stop offset="0%"   stop-color="#06080f"/>
      <stop offset="100%" stop-color="#0b0f1e"/>
    </linearGradient>
    <filter id="glow1">
      <feGaussianBlur stdDeviation="40" result="blur"/>
      <feComposite in="SourceGraphic" in2="blur" operator="over"/>
    </filter>
    <clipPath id="clip">
      <rect width="900" height="480" rx="16"/>
    </clipPath>
  </defs>

  <!-- Background -->
  <rect width="900" height="480" rx="16" fill="url(#bgGrad)"/>

  <!-- Subtle grid lines -->
  <g clip-path="url(#clip)" opacity="0.04" stroke="#7b61ff" stroke-width="1">
    <line x1="0" y1="40"  x2="900" y2="40"/>
    <line x1="0" y1="80"  x2="900" y2="80"/>
    <line x1="0" y1="120" x2="900" y2="120"/>
    <line x1="0" y1="160" x2="900" y2="160"/>
    <line x1="0" y1="200" x2="900" y2="200"/>
    <line x1="0" y1="240" x2="900" y2="240"/>
    <line x1="0" y1="280" x2="900" y2="280"/>
    <line x1="0" y1="320" x2="900" y2="320"/>
    <line x1="0" y1="360" x2="900" y2="360"/>
    <line x1="0" y1="400" x2="900" y2="400"/>
    <line x1="0" y1="440" x2="900" y2="440"/>
    <line x1="40"  y1="0" x2="40"  y2="480"/>
    <line x1="80"  y1="0" x2="80"  y2="480"/>
    <line x1="120" y1="0" x2="120" y2="480"/>
    <line x1="160" y1="0" x2="160" y2="480"/>
    <line x1="200" y1="0" x2="200" y2="480"/>
    <line x1="240" y1="0" x2="240" y2="480"/>
    <line x1="280" y1="0" x2="280" y2="480"/>
    <line x1="320" y1="0" x2="320" y2="480"/>
    <line x1="360" y1="0" x2="360" y2="480"/>
    <line x1="400" y1="0" x2="400" y2="480"/>
    <line x1="440" y1="0" x2="440" y2="480"/>
    <line x1="480" y1="0" x2="480" y2="480"/>
    <line x1="520" y1="0" x2="520" y2="480"/>
    <line x1="560" y1="0" x2="560" y2="480"/>
    <line x1="600" y1="0" x2="600" y2="480"/>
    <line x1="640" y1="0" x2="640" y2="480"/>
    <line x1="680" y1="0" x2="680" y2="480"/>
    <line x1="720" y1="0" x2="720" y2="480"/>
    <line x1="760" y1="0" x2="760" y2="480"/>
    <line x1="800" y1="0" x2="800" y2="480"/>
    <line x1="840" y1="0" x2="840" y2="480"/>
    <line x1="880" y1="0" x2="880" y2="480"/>
  </g>

  <!-- Ambient glow top-left -->
  <circle cx="0" cy="0" r="300" fill="#c8f542" opacity="0.04" filter="url(#glow1)"/>
  <!-- Ambient glow bottom-right -->
  <circle cx="900" cy="480" r="300" fill="#3de8c8" opacity="0.04" filter="url(#glow1)"/>

  <!-- Top accent bar -->
  <rect x="0" y="0" width="900" height="3" rx="0" fill="url(#limeCyan)"/>

  <!-- === LEFT COLUMN === -->

  <!-- Eyebrow label -->
  <rect x="40" y="36" width="4" height="12" rx="2" fill="#c8f542"/>
  <text x="52" y="47" font-family="'DM Mono', monospace" font-size="10" fill="#c8f542" letter-spacing="3" text-anchor="start">SOFTWARE ENGINEER</text>

  <!-- Name -->
  <text x="40" y="105" font-family="Georgia, serif" font-size="48" font-weight="800" fill="#dce4f0" letter-spacing="-1">Motlalepula</text>

  <!-- Name gradient part -->
  <text x="40" y="155" font-family="Georgia, serif" font-size="52" font-weight="800" font-style="italic" fill="url(#limeCyan)" letter-spacing="-2">Sello</text>

  <!-- Tagline -->
  <text x="40" y="185" font-family="'DM Mono', monospace" font-size="11" fill="#58667a" letter-spacing="1">Full Stack  ·  Ruby on Rails  ·  React  ·  Next.js</text>

  <!-- Location + email -->
  <text x="40" y="212" font-family="'DM Mono', monospace" font-size="10" fill="#58667a">📍 Johannesburg, ZA  ·  motlalepulasello5@gmail.com</text>

  <!-- Divider line -->
  <line x1="40" y1="228" x2="420" y2="228" stroke="#1a2235" stroke-width="1"/>

  <!-- STAT BOXES -->
  <!-- Stat 1 -->
  <rect x="40" y="242" width="88" height="62" rx="8" fill="#0f1520" stroke="#1a2235" stroke-width="1"/>
  <text x="84" y="268" font-family="Georgia, serif" font-size="26" font-weight="800" fill="#c8f542" text-anchor="middle">6+</text>
  <text x="84" y="284" font-family="'DM Mono', monospace" font-size="8" fill="#58667a" text-anchor="middle" letter-spacing="1">SAAS PRODUCTS</text>
  <text x="84" y="295" font-family="'DM Mono', monospace" font-size="8" fill="#58667a" text-anchor="middle" letter-spacing="1">SHIPPED</text>

  <!-- Stat 2 -->
  <rect x="138" y="242" width="88" height="62" rx="8" fill="#0f1520" stroke="#1a2235" stroke-width="1"/>
  <text x="182" y="268" font-family="Georgia, serif" font-size="26" font-weight="800" fill="#3de8c8" text-anchor="middle">300+</text>
  <text x="182" y="284" font-family="'DM Mono', monospace" font-size="8" fill="#58667a" text-anchor="middle" letter-spacing="1">ORGANIC</text>
  <text x="182" y="295" font-family="'DM Mono', monospace" font-size="8" fill="#58667a" text-anchor="middle" letter-spacing="1">SIGN-UPS</text>

  <!-- Stat 3 -->
  <rect x="236" y="242" width="88" height="62" rx="8" fill="#0f1520" stroke="#1a2235" stroke-width="1"/>
  <text x="280" y="268" font-family="Georgia, serif" font-size="26" font-weight="800" fill="#ff8c42" text-anchor="middle">93%</text>
  <text x="280" y="284" font-family="'DM Mono', monospace" font-size="8" fill="#58667a" text-anchor="middle" letter-spacing="1">CUSTOMER</text>
  <text x="280" y="295" font-family="'DM Mono', monospace" font-size="8" fill="#58667a" text-anchor="middle" letter-spacing="1">SATISFACTION</text>

  <!-- Stat 4 -->
  <rect x="334" y="242" width="88" height="62" rx="8" fill="#0f1520" stroke="#1a2235" stroke-width="1"/>
  <text x="378" y="268" font-family="Georgia, serif" font-size="26" font-weight="800" fill="#ff5e87" text-anchor="middle">4★</text>
  <text x="378" y="284" font-family="'DM Mono', monospace" font-size="8" fill="#58667a" text-anchor="middle" letter-spacing="1">AVG PRODUCT</text>
  <text x="378" y="295" font-family="'DM Mono', monospace" font-size="8" fill="#58667a" text-anchor="middle" letter-spacing="1">RATING</text>

  <!-- TECH STACK pills -->
  <text x="40" y="328" font-family="'DM Mono', monospace" font-size="9" fill="#58667a" letter-spacing="2">STACK</text>

  <!-- JS pill -->
  <rect x="40" y="336" width="62" height="22" rx="11" fill="rgba(247,223,30,0.08)" stroke="rgba(247,223,30,0.3)" stroke-width="1"/>
  <text x="71" y="351" font-family="'DM Mono', monospace" font-size="9" fill="#f7df1e" text-anchor="middle" font-weight="700">JavaScript</text>

  <!-- TS pill -->
  <rect x="108" y="336" width="68" height="22" rx="11" fill="rgba(49,120,198,0.1)" stroke="rgba(49,120,198,0.3)" stroke-width="1"/>
  <text x="142" y="351" font-family="'DM Mono', monospace" font-size="9" fill="#4d9eff" text-anchor="middle" font-weight="700">TypeScript</text>

  <!-- React pill -->
  <rect x="182" y="336" width="52" height="22" rx="11" fill="rgba(97,218,251,0.08)" stroke="rgba(97,218,251,0.3)" stroke-width="1"/>
  <text x="208" y="351" font-family="'DM Mono', monospace" font-size="9" fill="#61dafb" text-anchor="middle" font-weight="700">React</text>

  <!-- Next.js pill -->
  <rect x="240" y="336" width="52" height="22" rx="11" fill="rgba(220,220,220,0.07)" stroke="rgba(220,220,220,0.2)" stroke-width="1"/>
  <text x="266" y="351" font-family="'DM Mono', monospace" font-size="9" fill="#dce4f0" text-anchor="middle" font-weight="700">Next.js</text>

  <!-- Rails pill -->
  <rect x="298" y="336" width="52" height="22" rx="11" fill="rgba(204,52,45,0.09)" stroke="rgba(204,52,45,0.3)" stroke-width="1"/>
  <text x="324" y="351" font-family="'DM Mono', monospace" font-size="9" fill="#ef4444" text-anchor="middle" font-weight="700">Rails</text>

  <!-- PostgreSQL pill -->
  <rect x="356" y="336" width="72" height="22" rx="11" fill="rgba(51,103,145,0.1)" stroke="rgba(51,103,145,0.35)" stroke-width="1"/>
  <text x="392" y="351" font-family="'DM Mono', monospace" font-size="9" fill="#6db3e8" text-anchor="middle" font-weight="700">PostgreSQL</text>

  <!-- Row 2 pills -->
  <!-- Node pill -->
  <rect x="40" y="364" width="50" height="22" rx="11" fill="rgba(51,153,51,0.08)" stroke="rgba(51,153,51,0.3)" stroke-width="1"/>
  <text x="65" y="379" font-family="'DM Mono', monospace" font-size="9" fill="#4ade80" text-anchor="middle" font-weight="700">Node.js</text>

  <!-- Docker pill -->
  <rect x="96" y="364" width="52" height="22" rx="11" fill="rgba(29,99,237,0.09)" stroke="rgba(29,99,237,0.3)" stroke-width="1"/>
  <text x="122" y="379" font-family="'DM Mono', monospace" font-size="9" fill="#4d9eff" text-anchor="middle" font-weight="700">Docker</text>

  <!-- Linux pill -->
  <rect x="154" y="364" width="46" height="22" rx="11" fill="rgba(255,200,50,0.07)" stroke="rgba(255,200,50,0.25)" stroke-width="1"/>
  <text x="177" y="379" font-family="'DM Mono', monospace" font-size="9" fill="#fbbf24" text-anchor="middle" font-weight="700">Linux</text>

  <!-- REST APIs pill -->
  <rect x="206" y="364" width="62" height="22" rx="11" fill="rgba(61,232,200,0.07)" stroke="rgba(61,232,200,0.25)" stroke-width="1"/>
  <text x="237" y="379" font-family="'DM Mono', monospace" font-size="9" fill="#3de8c8" text-anchor="middle" font-weight="700">REST APIs</text>

  <!-- Testing pill -->
  <rect x="274" y="364" width="60" height="22" rx="11" fill="rgba(255,94,135,0.08)" stroke="rgba(255,94,135,0.25)" stroke-width="1"/>
  <text x="304" y="379" font-family="'DM Mono', monospace" font-size="9" fill="#ff5e87" text-anchor="middle" font-weight="700">Testing</text>

  <!-- Footer line -->
  <line x1="40" y1="412" x2="420" y2="412" stroke="#1a2235" stroke-width="1"/>
  <text x="40" y="428" font-family="'DM Mono', monospace" font-size="9" fill="#58667a" letter-spacing="1">OPEN TO OPPORTUNITIES  ·  @Motlakz</text>

  <!-- === RIGHT COLUMN === -->

  <!-- Vertical divider -->
  <line x1="452" y1="32" x2="452" y2="448" stroke="#1a2235" stroke-width="1"/>

  <!-- SECTION: Live Projects -->
  <text x="472" y="52" font-family="'DM Mono', monospace" font-size="9" fill="#58667a" letter-spacing="2">LIVE PROJECTS</text>
  <line x1="560" y1="46" x2="860" y2="46" stroke="#1a2235" stroke-width="1"/>

  <!-- Project Card 1: Quollie AI -->
  <rect x="472" y="60" width="118" height="70" rx="8" fill="#0f1520" stroke="#1a2235" stroke-width="1"/>
  <rect x="472" y="60" width="118" height="2" rx="1" fill="url(#limeCyan)"/>
  <text x="484" y="84" font-family="'DM Mono', monospace" font-size="16">🤖</text>
  <text x="504" y="84" font-family="Georgia, serif" font-size="13" font-weight="700" fill="#dce4f0">Quollie AI</text>
  <text x="484" y="100" font-family="'DM Mono', monospace" font-size="9" fill="#58667a">quollie.com</text>
  <text x="484" y="118" font-family="'DM Mono', monospace" font-size="8" fill="#3de8c8">AI SaaS Platform</text>

  <!-- Project Card 2: Belly Clock -->
  <rect x="600" y="60" width="118" height="70" rx="8" fill="#0f1520" stroke="#1a2235" stroke-width="1"/>
  <rect x="600" y="60" width="118" height="2" rx="1" fill="url(#orangeRose)"/>
  <text x="612" y="84" font-family="'DM Mono', monospace" font-size="16">🤰</text>
  <text x="632" y="84" font-family="Georgia, serif" font-size="13" font-weight="700" fill="#dce4f0">Belly Clock</text>
  <text x="612" y="100" font-family="'DM Mono', monospace" font-size="9" fill="#58667a">bellyclock.com</text>
  <text x="612" y="118" font-family="'DM Mono', monospace" font-size="8" fill="#ff8c42">Pregnancy Tracker</text>

  <!-- Project Card 3: Indie Launchers -->
  <rect x="728" y="60" width="132" height="70" rx="8" fill="#0f1520" stroke="#1a2235" stroke-width="1"/>
  <rect x="728" y="60" width="132" height="2" rx="1" fill="url(#blueGreen)"/>
  <text x="740" y="84" font-family="'DM Mono', monospace" font-size="16">🚀</text>
  <text x="760" y="84" font-family="Georgia, serif" font-size="13" font-weight="700" fill="#dce4f0">Indie Launchers</text>
  <text x="740" y="100" font-family="'DM Mono', monospace" font-size="9" fill="#58667a">indielaunchers.com</text>
  <text x="740" y="118" font-family="'DM Mono', monospace" font-size="8" fill="#4d9eff">Launch Community</text>

  <!-- SECTION: Experience -->
  <text x="472" y="158" font-family="'DM Mono', monospace" font-size="9" fill="#58667a" letter-spacing="2">EXPERIENCE</text>
  <line x1="546" y1="152" x2="860" y2="152" stroke="#1a2235" stroke-width="1"/>

  <!-- Exp item 1 -->
  <rect x="472" y="164" width="8" height="8" rx="2" fill="#c8f542"/>
  <text x="488" y="173" font-family="Georgia, serif" font-size="12" font-weight="700" fill="#dce4f0">Founding Full Stack Engineer</text>
  <text x="488" y="187" font-family="'DM Mono', monospace" font-size="9" fill="#3de8c8">Sello Software Solutions</text>
  <text x="800" y="173" font-family="'DM Mono', monospace" font-size="9" fill="#58667a">2024–Present</text>
  <text x="488" y="200" font-family="'DM Mono', monospace" font-size="9" fill="#8494b0">▸ 6 SaaS products · 300+ sign-ups · 20% downtime reduction</text>

  <line x1="472" y1="212" x2="860" y2="212" stroke="#1a2235" stroke-width="0.5" stroke-dasharray="4,4"/>

  <!-- Exp item 2 -->
  <rect x="472" y="218" width="8" height="8" rx="2" fill="#3de8c8"/>
  <text x="488" y="227" font-family="Georgia, serif" font-size="12" font-weight="700" fill="#dce4f0">Ruby on Rails Engineer</text>
  <text x="488" y="241" font-family="'DM Mono', monospace" font-size="9" fill="#3de8c8">Kodeco</text>
  <text x="800" y="227" font-family="'DM Mono', monospace" font-size="9" fill="#58667a">Mar–Sep 2023</text>
  <text x="488" y="254" font-family="'DM Mono', monospace" font-size="9" fill="#8494b0">▸ Rails MVC · Docker · Linux · enterprise feature dev</text>

  <line x1="472" y1="266" x2="860" y2="266" stroke="#1a2235" stroke-width="0.5" stroke-dasharray="4,4"/>

  <!-- Exp item 3 -->
  <rect x="472" y="272" width="8" height="8" rx="2" fill="#ff8c42"/>
  <text x="488" y="281" font-family="Georgia, serif" font-size="12" font-weight="700" fill="#dce4f0">Customer Success Engineer</text>
  <text x="488" y="295" font-family="'DM Mono', monospace" font-size="9" fill="#3de8c8">Kodeco</text>
  <text x="800" y="281" font-family="'DM Mono', monospace" font-size="9" fill="#58667a">Sep 2022–Mar 2023</text>
  <text x="488" y="308" font-family="'DM Mono', monospace" font-size="9" fill="#8494b0">▸ 93% satisfaction · Jira QA · front-end coding changes</text>

  <line x1="472" y1="320" x2="860" y2="320" stroke="#1a2235" stroke-width="0.5" stroke-dasharray="4,4"/>

  <!-- Exp item 4 -->
  <rect x="472" y="326" width="8" height="8" rx="2" fill="#ff5e87"/>
  <text x="488" y="335" font-family="Georgia, serif" font-size="12" font-weight="700" fill="#dce4f0">Customer Experience Specialist</text>
  <text x="488" y="349" font-family="'DM Mono', monospace" font-size="9" fill="#3de8c8">Kodeco</text>
  <text x="800" y="335" font-family="'DM Mono', monospace" font-size="9" fill="#58667a">Mar–Sep 2022</text>
  <text x="488" y="362" font-family="'DM Mono', monospace" font-size="9" fill="#8494b0">▸ ~100 daily requests · 5★ ratings · HubSpot issue tracking</text>

  <!-- SECTION: Education -->
  <line x1="472" y1="386" x2="860" y2="386" stroke="#1a2235" stroke-width="1"/>
  <text x="472" y="405" font-family="Georgia, serif" font-size="12" font-weight="700" fill="#dce4f0">The Odin Project</text>
  <text x="472" y="419" font-family="'DM Mono', monospace" font-size="9" fill="#58667a">Full Stack JavaScript · Web Development</text>
  <text x="800" y="405" font-family="'DM Mono', monospace" font-size="9" fill="#c8f542">2020–2025</text>

  <!-- Bottom border gradient -->
  <rect x="0" y="477" width="900" height="3" rx="0" fill="url(#limeCyan)"/>

  <!-- Outer border -->
  <rect x="0.5" y="0.5" width="899" height="479" rx="15.5" fill="none" stroke="#1a2235" stroke-width="1"/>
</svg>
